<svg xmlns="http://www.w3.org/2000/svg" xml:space="preserve" fill-rule="evenodd" stroke-linejoin="round" stroke-miterlimit="2" clip-rule="evenodd" viewBox="0 0 512 512"><circle cx="256" cy="256.808" r="231.193" fill="#646464"/><path fill="#fff" fill-rule="nonzero" d="M68.156 302.652v-57.625h-9.937v-8.75h9.937v-7.063c0-4.458.396-7.771 1.188-9.937 1.083-2.917 2.989-5.281 5.719-7.094 2.729-1.812 6.552-2.719 11.468-2.719 3.167 0 6.667.375 10.5 1.125l-1.687 9.813c-2.334-.417-4.542-.625-6.625-.625-3.417 0-5.834.729-7.25 2.187-1.417 1.459-2.125 4.188-2.125 8.188v6.125h12.937v8.75H79.344v57.625H68.156ZM144.344 294.464c-4.167 3.542-8.177 6.042-12.031 7.5-3.855 1.459-7.99 2.188-12.407 2.188-7.291 0-12.896-1.781-16.812-5.344-3.917-3.562-5.875-8.115-5.875-13.656 0-3.25.739-6.219 2.219-8.906 1.479-2.688 3.416-4.844 5.812-6.469 2.396-1.625 5.094-2.854 8.094-3.688 2.208-.583 5.541-1.146 10-1.687 9.083-1.084 15.771-2.375 20.062-3.875.042-1.542.063-2.521.063-2.938 0-4.583-1.063-7.812-3.188-9.687-2.875-2.542-7.146-3.813-12.812-3.813-5.292 0-9.198.927-11.719 2.782-2.521 1.854-4.385 5.135-5.594 9.843l-11-1.5c1-4.708 2.646-8.51 4.938-11.406 2.291-2.896 5.604-5.125 9.937-6.687 4.334-1.563 9.354-2.344 15.063-2.344 5.666 0 10.271.666 13.812 2 3.542 1.333 6.146 3.01 7.813 5.031 1.666 2.021 2.833 4.573 3.5 7.656.375 1.917.562 5.375.562 10.375v15c0 10.459.24 17.073.719 19.844.479 2.771 1.427 5.427 2.844 7.969h-11.75c-1.167-2.334-1.917-5.063-2.25-8.188Zm-.938-25.125c-4.083 1.667-10.208 3.084-18.375 4.25-4.625.667-7.896 1.417-9.812 2.25-1.917.834-3.396 2.052-4.438 3.657-1.041 1.604-1.562 3.385-1.562 5.343 0 3 1.135 5.5 3.406 7.5s5.594 3 9.969 3c4.333 0 8.187-.948 11.562-2.843 3.375-1.896 5.854-4.49 7.438-7.782 1.208-2.541 1.812-6.291 1.812-11.25v-4.125ZM190.656 302.652l-25.25-66.375h11.875l14.25 39.75a192.918 192.918 0 0 1 4.25 13.375c1-3.5 2.396-7.709 4.188-12.625l14.75-40.5h11.562l-25.125 66.375h-10.5ZM236.281 223.964v-12.937h11.25v12.937h-11.25Zm0 78.688v-66.375h11.25v66.375h-11.25ZM307.969 278.339l11.062 1.438c-1.208 7.625-4.302 13.594-9.281 17.906-4.979 4.313-11.094 6.469-18.344 6.469-9.083 0-16.385-2.969-21.906-8.906-5.521-5.938-8.281-14.448-8.281-25.532 0-7.166 1.187-13.437 3.562-18.812 2.375-5.375 5.99-9.406 10.844-12.094 4.854-2.687 10.135-4.031 15.844-4.031 7.208 0 13.104 1.823 17.687 5.469 4.584 3.645 7.521 8.822 8.813 15.531l-10.938 1.687c-1.041-4.458-2.885-7.812-5.531-10.062-2.646-2.25-5.844-3.375-9.594-3.375-5.666 0-10.271 2.031-13.812 6.094-3.542 4.062-5.313 10.489-5.313 19.281 0 8.916 1.709 15.396 5.125 19.437 3.417 4.042 7.875 6.063 13.375 6.063 4.417 0 8.104-1.354 11.063-4.063 2.958-2.708 4.833-6.875 5.625-12.5ZM324.469 269.464c0-12.291 3.416-21.396 10.25-27.312 5.708-4.917 12.666-7.375 20.875-7.375 9.125 0 16.583 2.989 22.375 8.969 5.791 5.979 8.687 14.239 8.687 24.781 0 8.541-1.281 15.26-3.843 20.156-2.563 4.896-6.292 8.698-11.188 11.406-4.896 2.709-10.24 4.063-16.031 4.063-9.292 0-16.802-2.979-22.531-8.938-5.73-5.958-8.594-14.541-8.594-25.75Zm11.562 0c0 8.5 1.854 14.865 5.563 19.094 3.708 4.229 8.375 6.344 14 6.344 5.583 0 10.229-2.125 13.937-6.375 3.709-4.25 5.563-10.729 5.563-19.438 0-8.208-1.865-14.427-5.594-18.656-3.729-4.229-8.365-6.344-13.906-6.344-5.625 0-10.292 2.104-14 6.313-3.709 4.208-5.563 10.562-5.563 19.062ZM399.844 302.652v-66.375h10.125v9.437c4.875-7.291 11.916-10.937 21.125-10.937 4 0 7.677.719 11.031 2.156 3.354 1.438 5.865 3.323 7.531 5.656 1.667 2.334 2.834 5.104 3.5 8.313.417 2.083.625 5.729.625 10.937v40.813h-11.25v-40.375c0-4.584-.437-8.011-1.312-10.281-.875-2.271-2.427-4.084-4.656-5.438-2.23-1.354-4.844-2.031-7.844-2.031-4.792 0-8.927 1.521-12.406 4.562-3.48 3.042-5.219 8.813-5.219 17.313v36.25h-11.25Z"/></svg>